<mxfile host="app.diagrams.net" agent="Mozilla/5.0 (Windows NT 10.0; Win64; x64) AppleWebKit/537.36 (KHTML, like Gecko) Chrome/134.0.0.0 Safari/537.36" version="26.1.3">
  <diagram name="第 1 页" id="DQsjC2llh1SyPHhEDBgx">
    <mxGraphModel dx="880" dy="468" grid="0" gridSize="10" guides="1" tooltips="1" connect="1" arrows="1" fold="1" page="1" pageScale="1" pageWidth="827" pageHeight="1169" math="0" shadow="0">
      <root>
        <mxCell id="0" />
        <mxCell id="1" parent="0" />
        <mxCell id="Yxq4X6V4PvEwX9olMZCO-1" value="价格" style="ellipse;whiteSpace=wrap;html=1;" vertex="1" parent="1">
          <mxGeometry x="315" y="307" width="83" height="56" as="geometry" />
        </mxCell>
        <mxCell id="Yxq4X6V4PvEwX9olMZCO-2" value="菜品信息" style="rounded=1;whiteSpace=wrap;html=1;" vertex="1" parent="1">
          <mxGeometry x="337" y="515" width="120" height="60" as="geometry" />
        </mxCell>
        <mxCell id="Yxq4X6V4PvEwX9olMZCO-3" value="菜品介绍" style="ellipse;whiteSpace=wrap;html=1;" vertex="1" parent="1">
          <mxGeometry x="425" y="302" width="83" height="56" as="geometry" />
        </mxCell>
        <mxCell id="Yxq4X6V4PvEwX9olMZCO-4" value="菜品图片" style="ellipse;whiteSpace=wrap;html=1;" vertex="1" parent="1">
          <mxGeometry x="517" y="336" width="83" height="56" as="geometry" />
        </mxCell>
        <mxCell id="Yxq4X6V4PvEwX9olMZCO-5" value="所属餐厅" style="ellipse;whiteSpace=wrap;html=1;" vertex="1" parent="1">
          <mxGeometry x="571" y="410" width="83" height="56" as="geometry" />
        </mxCell>
        <mxCell id="Yxq4X6V4PvEwX9olMZCO-7" value="菜品名称" style="ellipse;whiteSpace=wrap;html=1;" vertex="1" parent="1">
          <mxGeometry x="209" y="342" width="83" height="56" as="geometry" />
        </mxCell>
        <mxCell id="Yxq4X6V4PvEwX9olMZCO-8" value="" style="endArrow=none;html=1;rounded=0;entryX=1;entryY=1;entryDx=0;entryDy=0;" edge="1" parent="1" target="Yxq4X6V4PvEwX9olMZCO-7">
          <mxGeometry width="50" height="50" relative="1" as="geometry">
            <mxPoint x="394" y="516" as="sourcePoint" />
            <mxPoint x="393" y="390" as="targetPoint" />
          </mxGeometry>
        </mxCell>
        <mxCell id="Yxq4X6V4PvEwX9olMZCO-9" value="" style="endArrow=none;html=1;rounded=0;" edge="1" parent="1" target="Yxq4X6V4PvEwX9olMZCO-1">
          <mxGeometry width="50" height="50" relative="1" as="geometry">
            <mxPoint x="390" y="512" as="sourcePoint" />
            <mxPoint x="180" y="342" as="targetPoint" />
          </mxGeometry>
        </mxCell>
        <mxCell id="Yxq4X6V4PvEwX9olMZCO-10" value="" style="endArrow=none;html=1;rounded=0;entryX=0.5;entryY=1;entryDx=0;entryDy=0;exitX=0.444;exitY=0.037;exitDx=0;exitDy=0;exitPerimeter=0;" edge="1" parent="1" source="Yxq4X6V4PvEwX9olMZCO-2" target="Yxq4X6V4PvEwX9olMZCO-3">
          <mxGeometry width="50" height="50" relative="1" as="geometry">
            <mxPoint x="394" y="448" as="sourcePoint" />
            <mxPoint x="259" y="267" as="targetPoint" />
          </mxGeometry>
        </mxCell>
        <mxCell id="Yxq4X6V4PvEwX9olMZCO-11" value="" style="endArrow=none;html=1;rounded=0;entryX=0.426;entryY=0.963;entryDx=0;entryDy=0;exitX=0.444;exitY=0.056;exitDx=0;exitDy=0;exitPerimeter=0;entryPerimeter=0;" edge="1" parent="1" source="Yxq4X6V4PvEwX9olMZCO-2" target="Yxq4X6V4PvEwX9olMZCO-4">
          <mxGeometry width="50" height="50" relative="1" as="geometry">
            <mxPoint x="394" y="451" as="sourcePoint" />
            <mxPoint x="361" y="220" as="targetPoint" />
          </mxGeometry>
        </mxCell>
        <mxCell id="Yxq4X6V4PvEwX9olMZCO-12" value="" style="endArrow=none;html=1;rounded=0;entryX=0.5;entryY=1;entryDx=0;entryDy=0;exitX=0.426;exitY=0.037;exitDx=0;exitDy=0;exitPerimeter=0;" edge="1" parent="1" source="Yxq4X6V4PvEwX9olMZCO-2" target="Yxq4X6V4PvEwX9olMZCO-5">
          <mxGeometry width="50" height="50" relative="1" as="geometry">
            <mxPoint x="394" y="452" as="sourcePoint" />
            <mxPoint x="484" y="218" as="targetPoint" />
          </mxGeometry>
        </mxCell>
        <mxCell id="Yxq4X6V4PvEwX9olMZCO-15" value="菜品id" style="ellipse;whiteSpace=wrap;html=1;" vertex="1" parent="1">
          <mxGeometry x="149" y="417" width="83" height="56" as="geometry" />
        </mxCell>
        <mxCell id="Yxq4X6V4PvEwX9olMZCO-17" value="" style="endArrow=none;html=1;rounded=0;" edge="1" parent="1" target="Yxq4X6V4PvEwX9olMZCO-15">
          <mxGeometry width="50" height="50" relative="1" as="geometry">
            <mxPoint x="391" y="515" as="sourcePoint" />
            <mxPoint x="209" y="370" as="targetPoint" />
          </mxGeometry>
        </mxCell>
      </root>
    </mxGraphModel>
  </diagram>
</mxfile>
